<svg width="100" height="100" viewBox="0 0 100 100" fill="none" xmlns="http://www.w3.org/2000/svg">
<rect width="100" height="100" fill="white"/>
<rect x="25" y="23" width="46" height="63" fill="#EEEEEE"/>
<line x1="25" y1="25" x2="71" y2="25" stroke="#9B9A9A" stroke-width="4"/>
<line x1="25.5" y1="26" x2="25.5" y2="85" stroke="#9B9A9A"/>
<line x1="34.5" y1="26" x2="34.5" y2="85" stroke="#9B9A9A"/>
<line x1="43.5" y1="26" x2="43.5" y2="85" stroke="#9B9A9A"/>
<line x1="52.5" y1="26" x2="52.5" y2="86" stroke="#9B9A9A"/>
<line x1="61.5" y1="26" x2="61.5" y2="85" stroke="#9B9A9A"/>
<line x1="70.5" y1="27" x2="70.5" y2="86" stroke="#9B9A9A"/>
<line x1="25" y1="73.5" x2="70" y2="73.5" stroke="#9B9A9A"/>
<line x1="25" y1="85.5" x2="70" y2="85.5" stroke="#9B9A9A"/>
<line x1="25" y1="61.5" x2="70" y2="61.5" stroke="#9B9A9A"/>
<line x1="25" y1="50.5" x2="70" y2="50.5" stroke="#9B9A9A"/>
<line x1="25" y1="38.5" x2="70" y2="38.5" stroke="#9B9A9A"/>
<circle cx="34.5" cy="44.5" r="2.5" fill="#E68854"/>
<circle cx="52.5" cy="68.5" r="2.5" fill="#E68854"/>
<circle cx="43.5" cy="68.5" r="2.5" fill="#E68854"/>
<circle cx="61.5" cy="56.5" r="2.5" fill="#E68854"/>
<circle cx="70.5" cy="44.5" r="2.5" fill="#E68854"/>
<path opacity="0.5" d="M14.2564 48.0994C13.745 48.0994 13.2905 48.0118 12.8928 47.8366C12.4974 47.6615 12.1849 47.4176 11.9553 47.1051C11.7256 46.7926 11.6037 46.4316 11.5895 46.022H12.9247C12.9366 46.2185 13.0017 46.3902 13.12 46.5369C13.2384 46.6813 13.3958 46.7938 13.5923 46.8743C13.7888 46.9548 14.009 46.995 14.2528 46.995C14.5133 46.995 14.7441 46.95 14.9453 46.8601C15.1465 46.7678 15.304 46.6399 15.4176 46.4766C15.5313 46.3132 15.5869 46.125 15.5845 45.9119C15.5869 45.6918 15.5301 45.4976 15.4141 45.3295C15.2981 45.1615 15.13 45.0301 14.9098 44.9354C14.692 44.8407 14.4292 44.7933 14.1214 44.7933H13.4787V43.7777H14.1214C14.3748 43.7777 14.5961 43.7339 14.7855 43.6463C14.9773 43.5587 15.1276 43.4356 15.2365 43.277C15.3454 43.116 15.3987 42.9302 15.3963 42.7195C15.3987 42.5135 15.3525 42.3348 15.2578 42.1832C15.1655 42.0294 15.0341 41.9098 14.8636 41.8246C14.6955 41.7393 14.4979 41.6967 14.2706 41.6967C14.0481 41.6967 13.8421 41.737 13.6527 41.8175C13.4633 41.898 13.3106 42.0128 13.1946 42.1619C13.0786 42.3087 13.017 42.4839 13.0099 42.6875H11.7422C11.7517 42.2803 11.8688 41.9228 12.0938 41.6151C12.321 41.3049 12.6241 41.0634 13.0028 40.8906C13.3816 40.7154 13.8066 40.6278 14.2777 40.6278C14.763 40.6278 15.1844 40.719 15.5419 40.9013C15.9018 41.0812 16.1799 41.3239 16.3764 41.6293C16.5729 41.9347 16.6712 42.272 16.6712 42.6413C16.6735 43.0509 16.5528 43.3942 16.3089 43.6712C16.0675 43.9482 15.7502 44.1293 15.3572 44.2145V44.2713C15.8686 44.3423 16.2604 44.5317 16.5327 44.8395C16.8073 45.1449 16.9434 45.5249 16.9411 45.9794C16.9411 46.3866 16.825 46.7512 16.593 47.0732C16.3634 47.3928 16.0462 47.6437 15.6413 47.826C15.2389 48.0083 14.7772 48.0994 14.2564 48.0994Z" fill="#404040"/>
</svg>
