<svg width="100" height="100" viewBox="0 0 100 100" fill="none" xmlns="http://www.w3.org/2000/svg">
<rect width="100" height="100" fill="white"/>
<rect x="25" y="23" width="46" height="63" fill="#EEEEEE"/>
<line x1="25" y1="25" x2="71" y2="25" stroke="#9B9A9A" stroke-width="4"/>
<line x1="25.5" y1="26" x2="25.5" y2="85" stroke="#9B9A9A"/>
<line x1="34.5" y1="26" x2="34.5" y2="85" stroke="#9B9A9A"/>
<line x1="43.5" y1="26" x2="43.5" y2="85" stroke="#9B9A9A"/>
<line x1="52.5" y1="26" x2="52.5" y2="86" stroke="#9B9A9A"/>
<line x1="61.5" y1="26" x2="61.5" y2="85" stroke="#9B9A9A"/>
<line x1="70.5" y1="27" x2="70.5" y2="86" stroke="#9B9A9A"/>
<line x1="25" y1="73.5" x2="70" y2="73.5" stroke="#9B9A9A"/>
<line x1="25" y1="85.5" x2="70" y2="85.5" stroke="#9B9A9A"/>
<line x1="25" y1="61.5" x2="70" y2="61.5" stroke="#9B9A9A"/>
<line x1="25" y1="50.5" x2="70" y2="50.5" stroke="#9B9A9A"/>
<line x1="25" y1="38.5" x2="70" y2="38.5" stroke="#9B9A9A"/>
<circle cx="34.5" cy="56.5" r="2.5" fill="#E68854"/>
<circle cx="52.5" cy="22.5" r="2.5" fill="#E68854"/>
<circle cx="43.5" cy="32.5" r="2.5" fill="#E68854"/>
<circle cx="61.5" cy="32.5" r="2.5" fill="#E68854"/>
</svg>
